<svg xmlns="http://www.w3.org/2000/svg" width="256" height="256" viewBox="0 0 100 100"><rect width="100" height="100" rx="20" fill="#000000"></rect><path fill="#fff" d="M76.02 74.08L76.02 74.08Q67.27 83.18 53.69 83.18L53.69 83.18Q40.90 83.18 32.69 75.40L32.69 75.40Q28.60 71.49 26.29 65.14Q23.98 58.79 23.98 49.71Q23.98 40.64 28.25 32.95Q32.51 25.26 40.22 21.04Q47.93 16.82 57.40 16.82Q66.88 16.82 74.57 20.42L74.57 20.42Q75.36 21.39 75.36 22.86Q75.36 24.34 75.36 24.78L75.36 24.78L74.74 34.49Q72.32 36.11 70.06 36.11Q67.80 36.11 66.48 35.43Q65.16 34.75 64.55 33.52L64.55 33.52Q63.49 31.41 63.49 29.28Q63.49 27.15 63.58 25.48L63.58 25.48Q61.12 23.68 57.05 23.68Q52.99 23.68 50.51 24.49Q48.02 25.30 45.83 27.15Q43.63 28.99 42.09 31.76L42.09 31.76Q38.75 37.78 38.75 48.15L38.75 48.15Q38.75 61.25 44.48 68.26Q50.22 75.27 59.36 75.27L59.36 75.27Q66.00 75.27 72.50 69.69L72.50 69.69Q75.05 70.92 76.02 74.08Z"></path></svg>